<svg viewBox="0 0 40 40" fill="none" xmlns="http://www.w3.org/2000/svg">
<mask id="mask0_6_37" style="mask-type:alpha" maskUnits="userSpaceOnUse" x="0" y="0" width="40" height="40">
<rect width="40" height="40" fill="white"/>
</mask>
<g mask="url(#mask0_6_37)">
<circle cx="20" cy="20" r="20" fill="white"/>
<path d="M19.2976 19.2497C18.9907 19.6063 18.6718 20.0124 18.4304 20.2655C18.2757 20.4233 18.1048 20.5752 17.9198 20.7198C17.6698 20.9156 17.3799 21.1087 17.0517 21.2934C16.5344 21.5845 15.9536 21.8381 15.3455 22.0452C14.7098 22.2616 14.0904 22.4121 13.5312 22.5088C12.7444 22.6451 12.1603 22.6616 11.8203 22.6616C12.1503 22.6064 12.6954 22.4873 13.3743 22.2445C13.8581 22.0716 14.3733 21.8478 14.8811 21.5735C15.3684 21.3102 15.8066 21.0223 16.1824 20.7214C16.4203 20.5309 16.6208 20.3453 16.7908 20.1671C16.9168 20.0357 17.0286 19.9028 17.1264 19.7705C17.3265 19.5155 18.0007 18.6723 18.2872 18.2994M21.0634 15.2763C21.9836 14.3768 23.3278 12.9946 24.512 12.3184C24.7595 12.1772 25.015 12.0439 25.2778 11.9223C25.625 11.7616 25.991 11.618 26.3735 11.5022C27.0223 11.3059 27.7302 11.1856 28.4768 11.1998C29.3291 11.2193 30.2331 11.3591 31.1108 11.6327C31.9708 11.9008 32.7996 12.2935 33.5226 12.8121C34.2517 13.3351 34.8588 13.9757 35.289 14.728C35.7274 15.4948 35.9709 16.3574 35.9977 17.3069C35.9982 17.3215 35.9986 17.341 35.9989 17.3567C36.014 18.0235 35.8715 18.7124 35.614 19.3766C35.3539 20.0473 34.9768 20.6925 34.5222 21.269C34.0506 21.867 33.4938 22.3939 32.8846 22.8105C32.5641 23.0299 32.2251 23.2208 31.8708 23.3776C31.4984 23.5422 31.1063 23.6697 30.6971 23.7518C30.6769 23.7548 30.6567 23.7616 30.6356 23.7616C30.0831 23.8574 29.5467 23.8881 29.0303 23.8681C28.4663 23.8485 27.9317 23.7636 27.4306 23.6415C26.3789 23.385 25.422 22.9416 24.5723 22.4404C23.6873 21.9183 22.84 21.2867 22.0288 20.6083C21.2365 19.9454 20.4639 19.2259 19.6664 18.4573C18.9694 17.7856 18.2593 17.0801 17.5207 16.378C17.4905 16.3487 17.4587 16.3193 17.428 16.29C16.718 15.6179 16.0017 14.975 15.2853 14.4271C14.5951 13.8992 13.9318 13.4805 13.2917 13.1985C12.9848 13.0632 12.6937 12.9641 12.4174 12.8982C12.1478 12.8342 11.8878 12.7999 11.6308 12.796C11.03 12.7863 10.481 12.8577 9.97666 12.9925C9.48029 13.1254 9.01058 13.3271 8.57504 13.5989C8.14468 13.8676 7.7529 14.2019 7.4121 14.5948C7.07496 14.9836 6.79364 15.4227 6.57857 15.8966C6.34273 16.4162 6.18962 16.9702 6.12612 17.5329C6.07523 17.9842 6.08076 18.4457 6.14627 18.9018C6.21884 19.3962 6.36338 19.8805 6.5841 20.3343C6.80029 20.7788 7.08715 21.1896 7.44393 21.5492C8.17055 22.2801 8.88978 22.8459 9.63187 23.3335C10.373 23.8205 11.1349 24.2282 11.9593 24.6513C12.8034 25.0846 13.6744 25.5144 14.6183 26.045C15.3107 26.4343 16.0162 26.8632 16.7502 27.365C17.0445 27.5663 17.3516 27.7847 17.671 28.0233C18.3938 28.5753 18.9579 29.1327 19.3748 29.7104C19.784 30.2774 20.0292 30.8331 20.1709 31.3853C20.3241 31.983 20.3544 32.5714 20.3418 33.1108C20.3267 33.7922 20.2259 34.6288 20.1855 35C20.1704 34.5999 20.1402 33.8158 20.0324 33.1196C19.9497 32.5863 19.8156 32.0286 19.5672 31.4772C19.3394 30.9713 19.0221 30.4832 18.5705 29.9975C18.1109 29.5035 17.5286 29.0295 16.8061 28.5549C16.481 28.3361 16.1703 28.1363 15.8738 27.9537C15.1349 27.4985 14.4298 27.1133 13.7388 26.7652C12.7859 26.285 11.9272 25.9078 11.0233 25.4922C10.1551 25.0931 9.29226 24.6788 8.43694 24.1664C7.57164 23.6479 6.73066 23.0388 5.88668 22.2524C5.39887 21.7961 5.01602 21.2865 4.72696 20.7527C4.43166 20.2075 4.23261 19.6336 4.11827 19.0558C4.01295 18.5223 3.9798 17.9834 4.01154 17.4552C4.05186 16.7977 4.18879 16.1401 4.42815 15.5095C4.64585 14.9347 4.94876 14.379 5.33996 13.8652C5.73504 13.3466 6.22284 12.8665 6.81032 12.4521C7.40789 12.0306 8.10741 11.678 8.90891 11.4252C9.72986 11.1663 10.633 11.0196 11.6008 11.001C12.1871 10.9913 12.7509 11.051 13.2862 11.1623C13.8275 11.2752 14.336 11.4403 14.8105 11.6367C15.7771 12.0368 16.6556 12.5903 17.4441 13.1827C18.2729 13.8054 19.0593 14.5149 19.7837 15.2151C19.8139 15.2444 19.8471 15.277 19.8794 15.3078C20.6114 16.0198 21.3526 16.7945 21.981 17.4476C22.7338 18.23 23.416 18.9342 24.106 19.5847C24.812 20.2502 25.5046 20.838 26.2008 21.3126C26.8753 21.7723 27.5512 22.1244 28.2296 22.3275C28.547 22.4223 28.8688 22.4863 29.1975 22.5122C29.4968 22.5367 29.8159 22.5317 30.1587 22.4779C30.1687 22.4765 30.1838 22.4735 30.199 22.473C30.3945 22.4535 30.6168 22.4003 30.8609 22.3095C31.0937 22.223 31.3396 22.1028 31.592 21.9465C32.0747 21.647 32.5533 21.2314 32.977 20.7211C33.3837 20.2315 33.7243 19.673 33.9605 19.0884C34.1948 18.5091 34.3192 17.9205 34.3137 17.366C34.3136 17.3514 34.3132 17.3369 34.3129 17.3222C34.2978 16.489 34.0761 15.7569 33.7027 15.1283C33.3369 14.5121 32.8291 14.0061 32.243 13.6054C31.6604 13.2072 31.007 12.9175 30.3506 12.7257C29.6784 12.5293 29.0168 12.4396 28.4289 12.4313C28.0202 12.4264 27.5994 12.4899 27.1514 12.6237C26.8863 12.7028 26.616 12.8054 26.3417 12.9295C26.1345 13.0232 25.9264 13.1288 25.7179 13.245C24.7064 13.8094 23.0585 15.4831 22.1533 16.3379" fill="black"/>
</g>
</svg>
