<svg width="500" height="500" viewBox="0 0 500 500" fill="none" xmlns="http://www.w3.org/2000/svg">
<path d="M250 41.5996C296.042 41.5996 315.149 41.7922 330.218 46.3779C365.391 57.0821 392.918 84.6093 403.622 119.782C408.208 134.851 408.4 153.958 408.4 200V252.506C408.4 278.699 408.38 297.064 406.983 311.271C405.614 325.201 403.057 333.239 399.165 339.329C394.583 346.497 388.497 352.583 381.329 357.165C375.239 361.057 367.201 363.614 353.271 364.983C339.064 366.38 320.699 366.4 294.506 366.4H254C204.107 366.4 183.416 366.175 167.2 360.802C134.117 349.839 108.161 323.883 97.1982 290.8C91.825 274.584 91.5996 253.893 91.5996 204V200C91.5996 153.958 91.7922 134.851 96.3779 119.782C107.082 84.6093 134.609 57.0821 169.782 46.3779C184.851 41.7922 203.958 41.5996 250 41.5996Z" fill="white" stroke="white" stroke-width="35.2"/>
<mask id="path-2-inside-1_1_145" fill="white">
<path d="M354 340C393.765 340 426 372.235 426 412V412C426 451.764 393.764 484 354 484L343.44 484C300.671 484 266 449.329 266 406.56L266 364.64C266 351.032 277.032 340 290.64 340L354 340Z"/>
</mask>
<path d="M354 340C393.765 340 426 372.235 426 412V412C426 451.764 393.764 484 354 484L343.44 484C300.671 484 266 449.329 266 406.56L266 364.64C266 351.032 277.032 340 290.64 340L354 340Z" fill="white" stroke="white" stroke-width="70.4" mask="url(#path-2-inside-1_1_145)"/>
<mask id="path-3-inside-2_1_145" fill="white">
<path d="M426 414.32V255.185L393.133 376.381L426 414.32Z"/>
</mask>
<path d="M426 414.32V255.185L393.133 376.381L426 414.32Z" fill="black"/>
<path d="M426 255.185H461.2L392.027 245.972L426 255.185ZM426 414.32L399.395 437.368L461.2 508.711V414.32H426ZM393.133 376.381L359.16 367.168L354.254 385.261L366.528 399.429L393.133 376.381ZM426 255.185H390.8V414.32H426H461.2V255.185H426ZM426 414.32L452.605 391.272L419.738 353.333L393.133 376.381L366.528 399.429L399.395 437.368L426 414.32ZM393.133 376.381L427.106 385.594L459.973 264.398L426 255.185L392.027 245.972L359.16 367.168L393.133 376.381Z" fill="white" mask="url(#path-3-inside-2_1_145)"/>
<path d="M250 54.5C293.164 54.5 311.077 54.6803 325.204 58.9795C358.179 69.0147 383.985 94.8213 394.021 127.796C398.32 141.923 398.5 159.836 398.5 203V244.724C398.5 269.28 398.481 286.498 397.172 299.817C395.888 312.876 393.491 320.412 389.842 326.121C385.546 332.841 379.841 338.546 373.121 342.842C367.412 346.491 359.876 348.888 346.817 350.172C333.498 351.481 316.28 351.5 291.725 351.5H250C206.836 351.5 188.923 351.32 174.796 347.021C141.821 336.985 116.015 311.179 105.979 278.204C101.68 264.077 101.5 246.164 101.5 203C101.5 159.836 101.68 141.923 105.979 127.796C116.015 94.8213 141.821 69.0147 174.796 58.9795C188.923 54.6803 206.836 54.5 250 54.5Z" fill="white" stroke="black" stroke-width="33"/>
<mask id="path-6-inside-3_1_145" fill="white">
<path d="M347.5 335C384.779 335 415 365.221 415 402.5V402.5C415 439.779 384.779 470 347.5 470V470C310.221 470 280 439.779 280 402.5L280 358.1C280 345.342 290.342 335 303.1 335L347.5 335Z"/>
</mask>
<path d="M347.5 335C384.779 335 415 365.221 415 402.5V402.5C415 439.779 384.779 470 347.5 470V470C310.221 470 280 439.779 280 402.5L280 358.1C280 345.342 290.342 335 303.1 335L347.5 335Z" fill="white" stroke="black" stroke-width="66" mask="url(#path-6-inside-3_1_145)"/>
<mask id="path-7-inside-4_1_145" fill="white">
<path d="M415 404.3V255.111L384.188 368.732L415 404.3Z"/>
</mask>
<path d="M415 404.3V255.111L384.188 368.732L415 404.3Z" fill="black"/>
<path d="M415 255.111H448L383.15 246.474L415 255.111ZM415 404.3L390.058 425.908L448 492.792V404.3H415ZM384.188 368.732L352.338 360.095L347.738 377.057L359.245 390.34L384.188 368.732ZM415 255.111H382V404.3H415H448V255.111H415ZM415 404.3L439.942 382.692L409.13 347.125L384.188 368.732L359.245 390.34L390.058 425.908L415 404.3ZM384.188 368.732L416.037 377.369L446.85 263.749L415 255.111L383.15 246.474L352.338 360.095L384.188 368.732Z" fill="black" mask="url(#path-7-inside-4_1_145)"/>
</svg>
